<?xml version="1.0" standalone="no"?>
<!DOCTYPE svg PUBLIC "-//W3C//DTD SVG 20010904//EN"
 "http://www.w3.org/TR/2001/REC-SVG-20010904/DTD/svg10.dtd">
<svg version="1.0" xmlns="http://www.w3.org/2000/svg"
 width="300.000000pt" height="79.000000pt" viewBox="0 0 300.000000 79.000000"
 preserveAspectRatio="xMidYMid meet">

<g transform="translate(0.000000,79.000000) scale(0.100000,-0.100000)"
fill="#ffffff" stroke="none">
<path d="M2543 740 c-26 -10 -63 -66 -63 -93 0 -31 29 -76 60 -92 37 -19 103
-19 140 0 30 16 60 61 60 90 0 29 -30 74 -60 90 -32 16 -102 19 -137 5z"/>
<path d="M2298 456 l46 -133 -18 -77 c-10 -43 -16 -78 -15 -80 2 -1 70 -32
151 -68 l147 -66 148 65 c82 36 150 67 152 69 1 1 -5 37 -15 80 l-18 77 46
134 c26 73 46 133 45 133 -2 0 -82 -27 -180 -59 l-177 -60 -177 60 c-98 32
-178 59 -180 59 -1 0 19 -60 45 -134z m185 -5 l97 -33 0 -149 c0 -82 -4 -149
-9 -149 -5 0 -48 18 -96 40 l-87 40 7 33 c17 80 16 103 -9 176 -30 86 -30 85
-13 79 6 -3 56 -20 110 -37z m377 36 c0 -2 -12 -37 -26 -78 -25 -73 -26 -96
-9 -176 l7 -33 -87 -40 c-48 -22 -91 -40 -96 -40 -5 0 -9 67 -9 149 l0 149 98
35 c92 33 122 41 122 34z"/>
<path d="M61 481 c-30 -8 -39 -29 -17 -37 23 -9 23 -148 1 -171 -23 -23 -13
-38 28 -41 32 -3 37 0 43 23 3 14 3 50 -1 80 -3 30 -4 55 -2 55 3 0 18 -36 33
-80 l29 -81 35 3 c35 3 35 3 37 53 1 28 4 82 8 121 6 77 0 89 -45 77 -20 -5
-21 -10 -16 -82 l6 -76 -25 70 c-14 38 -28 72 -33 76 -12 12 -56 18 -81 10z"/>
<path d="M1153 478 c-18 -5 -39 -19 -47 -31 -37 -55 -27 -171 17 -202 50 -35
172 -2 139 38 -11 12 -19 13 -43 5 -16 -5 -35 -8 -43 -5 -32 13 -28 137 5 137
11 0 20 -10 24 -30 13 -59 65 -19 65 50 0 35 -60 54 -117 38z"/>
<path d="M483 419 c-24 -9 -30 -38 -12 -56 5 -5 18 -37 28 -69 16 -54 20 -59
48 -62 26 -3 32 2 44 30 l14 33 5 -30 c4 -25 10 -31 36 -33 27 -3 35 2 52 30
28 48 45 105 38 134 -5 20 -13 24 -41 24 -41 0 -52 -14 -35 -45 8 -15 10 -37
6 -60 -10 -49 -16 -40 -24 36 l-7 64 -35 0 c-26 0 -36 -5 -38 -19 -2 -10 1
-22 8 -26 8 -5 9 -20 4 -46 -7 -36 -8 -37 -15 -14 -4 14 -10 42 -14 62 -7 43
-29 60 -62 47z"/>
<path d="M319 410 c-43 -25 -48 -121 -8 -161 23 -23 80 -25 114 -3 35 23 22
43 -27 41 -25 -1 -43 3 -45 11 -3 8 6 12 29 12 61 1 85 41 52 88 -12 17 -25
22 -57 22 -23 0 -49 -5 -58 -10z m69 -57 c2 -8 -5 -13 -17 -13 -12 0 -21 6
-21 16 0 18 31 15 38 -3z"/>
<path d="M772 408 c-25 -32 -24 -58 5 -86 16 -15 38 -33 48 -40 18 -11 17 -12
-10 -7 -16 4 -34 7 -39 8 -16 3 -19 -35 -4 -44 25 -16 87 -10 108 11 11 11 20
25 20 31 0 16 -56 69 -74 69 -9 0 -16 5 -16 10 0 12 12 13 43 1 27 -11 37 1
37 40 0 16 -7 19 -54 19 -31 0 -58 -5 -64 -12z"/>
<path d="M1310 400 c-28 -28 -28 -108 1 -144 26 -32 84 -36 120 -7 21 16 24
28 24 81 0 49 -4 64 -19 76 -30 21 -102 18 -126 -6z m81 -52 c2 -28 0 -49 -7
-67 -3 -11 -7 -11 -19 -1 -25 21 -17 90 11 90 8 0 15 -10 15 -22z"/>
<path d="M1487 413 c-10 -10 -8 -43 3 -43 5 0 10 -30 12 -67 3 -73 11 -82 64
-69 30 8 33 43 4 48 -20 3 -20 3 0 36 11 18 28 32 39 32 11 0 23 9 26 20 6 18
8 18 21 5 11 -10 13 -25 9 -49 -4 -19 -4 -48 0 -65 5 -26 11 -31 36 -31 26 0
29 3 29 35 0 37 18 85 32 85 4 0 8 -25 8 -55 0 -62 13 -75 58 -59 33 12 40 34
12 41 -12 3 -19 11 -16 19 14 35 17 84 7 103 -23 42 -91 20 -104 -34 -3 -12
-5 -4 -6 17 l-1 37 -71 -1 c-62 0 -71 -3 -78 -22 l-8 -21 -7 23 c-5 16 -15 22
-35 22 -15 0 -31 -3 -34 -7z"/>
<path d="M1896 401 c-37 -41 -28 -138 15 -161 40 -22 119 -2 119 31 0 14 -8
17 -41 16 -26 -1 -44 3 -46 11 -3 8 7 12 30 12 35 0 67 24 67 51 0 8 -7 25
-16 37 -20 29 -102 32 -128 3z m77 -46 c1 -5 -6 -11 -15 -13 -11 -2 -18 3 -18
13 0 17 30 18 33 0z"/>
<path d="M2058 414 c-4 -3 -3 -17 3 -31 5 -13 9 -45 9 -69 0 -25 5 -54 10 -65
13 -23 62 -26 80 -4 14 16 6 35 -16 35 -18 0 -18 6 3 41 11 19 26 29 40 29 20
0 23 5 23 35 0 31 -3 35 -25 35 -20 0 -29 -8 -40 -32 l-13 -33 -4 30 c-2 25
-8 30 -33 33 -17 2 -34 0 -37 -4z"/>
<path d="M943 343 c-15 -3 -23 -12 -23 -24 0 -17 7 -19 65 -19 63 0 65 1 65
25 0 23 -3 25 -42 24 -24 -1 -53 -4 -65 -6z"/>
</g>
</svg>
